<svg width="75" height="330" viewBox="0 0 75 330" fill="none" xmlns="http://www.w3.org/2000/svg">
<path d="M63.2525 216.753L63.3208 209.41L66.2323 209.437L66.164 216.78L63.2525 216.753ZM71.8775 216.571L71.8446 220.111L56.1672 219.965L56.2747 208.404L59.1863 208.431L59.1116 216.452L71.8775 216.571Z" fill="#353333"/>
<path d="M72.0314 200.034L56.354 199.888L56.3869 196.348L72.0643 196.494L72.0314 200.034Z" fill="#353333"/>
<path d="M72.1845 183.575L59.4634 183.457L59.4178 188.352L56.4615 188.324L56.5856 174.993L59.5419 175.021L59.4963 179.916L72.2174 180.034L72.1845 183.575Z" fill="#353333"/>
<path d="M72.3376 167.115L56.6602 166.969L56.6874 164.041L68.0591 155.12L68.0459 156.54L56.7582 156.435L56.7907 152.938L72.4681 153.084L72.4411 155.991L61.0692 164.934L61.0824 163.513L72.3701 163.618L72.3376 167.115Z" fill="#353333"/>
<path d="M63.2274 140.002L63.2959 132.637L66.1178 132.663L66.0493 140.028L63.2274 140.002ZM69.6799 139.8L69.7574 131.473L72.6689 131.5L72.5587 143.346L56.8813 143.2L56.9889 131.639L59.9004 131.666L59.8256 139.708L69.6799 139.8Z" fill="#353333"/>
<path d="M73.0676 117.54C73.0562 118.764 72.881 119.935 72.5421 121.054C72.1883 122.173 71.7394 123.072 71.1955 123.752L68.4744 122.524C68.9582 121.873 69.3611 121.105 69.6829 120.219C69.9899 119.318 70.1477 118.409 70.1563 117.491C70.1628 116.792 70.1008 116.23 69.9703 115.806C69.8251 115.368 69.6265 115.046 69.3746 114.839C69.1227 114.633 68.8325 114.528 68.504 114.525C68.0859 114.521 67.7559 114.678 67.5141 114.997C67.2573 115.315 67.0518 115.736 66.8976 116.259C66.7285 116.782 66.5737 117.363 66.4334 118.003C66.2782 118.628 66.0932 119.26 65.8782 119.899C65.6633 120.524 65.3892 121.097 65.0559 121.618C64.7225 122.14 64.2855 122.565 63.7449 122.896C63.2044 123.211 62.5161 123.365 61.68 123.357C60.7841 123.349 59.9725 123.108 59.2453 122.635C58.5032 122.147 57.9201 121.428 57.4959 120.477C57.0569 119.511 56.8441 118.307 56.8575 116.865C56.8665 115.903 56.9947 114.957 57.2423 114.027C57.4749 113.097 57.826 112.277 58.2955 111.567L61.0401 112.685C60.6154 113.395 60.3027 114.106 60.1019 114.818C59.8862 115.53 59.7752 116.229 59.7688 116.914C59.7625 117.598 59.8394 118.16 59.9996 118.599C60.1597 119.037 60.3733 119.353 60.6403 119.544C60.8924 119.736 61.1901 119.834 61.5335 119.837C61.9366 119.841 62.2666 119.683 62.5234 119.365C62.7653 119.047 62.9633 118.626 63.1175 118.103C63.2717 117.58 63.4264 117.006 63.5815 116.381C63.7368 115.741 63.9144 115.109 64.1143 114.484C64.3144 113.845 64.5811 113.265 64.9144 112.743C65.2478 112.222 65.6847 111.803 66.2252 111.488C66.7658 111.158 67.4468 110.996 68.268 111.004C69.1489 111.012 69.9529 111.26 70.68 111.748C71.4072 112.235 71.9902 112.962 72.4292 113.928C72.8683 114.879 73.0811 116.083 73.0676 117.54Z" fill="#353333"/>
<path d="M73.2541 97.4842C73.2428 98.7081 73.0676 99.8794 72.7287 100.998C72.3748 102.117 71.926 103.016 71.3821 103.696L68.6609 102.468C69.1448 101.817 69.5477 101.049 69.8695 100.163C70.1765 99.2624 70.3343 98.3532 70.3428 97.4353C70.3493 96.7359 70.2874 96.1744 70.1569 95.7506C70.0117 95.3121 69.8131 94.9897 69.5612 94.7834C69.3092 94.5771 69.019 94.4724 68.6906 94.4693C68.2725 94.4654 67.9425 94.6226 67.7006 94.9409C67.4438 95.2591 67.2383 95.6798 67.0842 96.2029C66.915 96.7259 66.7603 97.3072 66.62 97.9471C66.4648 98.5722 66.2798 99.2043 66.0648 99.8434C65.8499 100.468 65.5758 101.041 65.2424 101.562C64.9091 102.084 64.4721 102.51 63.9315 102.84C63.391 103.155 62.7027 103.309 61.8665 103.301C60.9707 103.293 60.1591 103.052 59.4318 102.579C58.6898 102.092 58.1066 101.372 57.6825 100.421C57.2435 99.4553 57.0307 98.2513 57.0441 96.8089C57.0531 95.8473 57.1813 94.9014 57.4289 93.9711C57.6615 93.0407 58.0126 92.2207 58.4821 91.5111L61.2267 92.6295C60.802 93.3395 60.4892 94.0506 60.2885 94.7627C60.0728 95.4747 59.9618 96.173 59.9554 96.8578C59.9491 97.5426 60.026 98.1043 60.1861 98.5429C60.3463 98.9815 60.5599 99.2968 60.8269 99.4887C61.0789 99.6805 61.3767 99.7779 61.7201 99.7811C62.1232 99.7849 62.4532 99.6277 62.71 99.3095C62.9519 98.9912 63.1499 98.5705 63.3041 98.0473C63.4583 97.5242 63.6129 96.9501 63.7681 96.325C63.9234 95.6853 64.101 95.0532 64.3009 94.4285C64.5009 93.7892 64.7677 93.2088 65.101 92.6874C65.4344 92.1659 65.8713 91.7474 66.4118 91.4319C66.9524 91.1018 67.6333 90.9406 68.4545 90.9482C69.3354 90.9564 70.1395 91.2043 70.8666 91.6919C71.5938 92.1795 72.1768 92.9062 72.6158 93.872C73.0549 94.8232 73.2677 96.0273 73.2541 97.4842Z" fill="#353333"/>
<path d="M3.65735 14.8175L3.43638 38.5707L10.7598 45.9482L34.333 54.695L42.5145 49.2892L42.7638 22.4906L32.4952 13.8675L9.62714 8.7819L3.65735 14.8175Z" stroke="#353333"/>
<path d="M42.8589 12.7502L3.05863 0.197745L3.16062 -10.7653L25.4312 -20.913L3.31926 -27.8189L3.43258 -40.0001L35.8641 -29.9526L43.2159 -25.6204L43.1196 -15.2665L21.6051 -6.93905L42.9722 0.569052L42.8589 12.7502Z" stroke="#353333"/>
<path d="M2.12838 179.264L2.03206 189.618L34.4636 199.666L40.4277 194.239L40.66 169.268L31.8073 167.358L31.6374 185.63L2.12838 179.264Z" stroke="#353333"/>
<path d="M34.0596 163.72L3.11195 153.078L3.21393 142.115L30.4942 149.678L30.6528 132.624L3.37824 124.452L3.4859 112.88L34.4392 122.914L41.7229 134.554L41.4736 161.353L34.0596 163.72Z" stroke="#353333"/>
<path d="M13.1166 110.539L3.53048 108.013L3.88176 70.2514L13.4736 72.168L13.3489 85.5672L39.1452 93.7256L41.3173 98.6187L41.2437 106.536L13.23 98.3574L13.1166 110.539Z" stroke="#353333"/>
<path d="M6.89964 64.184L3.26626 57.45L3.32292 51.3594L7.01863 51.3938L42.3784 64.514L42.2878 74.259L6.89964 64.184Z" stroke="#353333"/>
<path d="M6.05285 234.119L1.68599 226.769L1.90696 203.015L9.3437 198.212L32.9339 205.131L40.246 213.727L40.008 239.307L32.5713 244.111L6.05285 234.119Z" stroke="#353333"/>
<path d="M1.2979 268.793L1.18458 280.974L1.17325 282.192L35.1567 284.336L40.3591 281.339L39.8012 261.842L30.2944 250.79L1.57553 238.949L1.46788 250.521L30.1584 265.407L30.0961 272.107L1.2979 268.793Z" stroke="#353333"/>
<path d="M29.5722 328.142L0.813698 320.565L1.14232 285.24L10.7228 288.374L10.5075 311.519L16.4093 312.792L16.6133 290.866L24.7155 293.986L24.5115 315.913L29.6855 315.961L29.8895 294.035L40.2035 297.785L39.215 324.577L33.9957 329.401L29.5722 328.142Z" stroke="#353333"/>
<path d="M11.4434 211.027L11.3301 223.208L29.752 229.471L29.8823 215.462L11.4434 211.027Z" stroke="#353333"/>
<path d="M13.2012 22.2165L13.0879 34.3977L31.5098 40.6602L31.6401 26.6518L13.2012 22.2165Z" stroke="#353333"/>
</svg>
