<svg width="20" height="20" viewBox="0 0 20 20" fill="none" xmlns="http://www.w3.org/2000/svg">
<g clip-path="url(#clip0_197_19)">
<path fill-rule="evenodd" clip-rule="evenodd" d="M17.0519 2.90667C15.1802 1.03333 12.6919 0.000833333 10.041 0C4.57854 0 0.132708 4.445 0.130208 9.91C0.129375 11.6567 0.586042 13.3617 1.45354 14.865L0.046875 20L5.30021 18.6217C6.74771 19.4117 8.37771 19.8275 10.036 19.8283H10.0402C15.5019 19.8283 19.9485 15.3825 19.951 9.9175C19.9527 7.27 18.9227 4.77917 17.0519 2.90667ZM10.041 18.1542H10.0377C8.55937 18.1542 7.11021 17.7567 5.84521 17.0058L5.54437 16.8275L2.42688 17.645L3.25938 14.605L3.06354 14.2933C2.23854 12.9817 1.80354 11.4658 1.80438 9.91C1.80604 5.36833 5.50188 1.67333 10.0452 1.67333C12.2452 1.67333 14.3135 2.53167 15.8685 4.08833C17.4235 5.64583 18.2794 7.715 18.2785 9.91583C18.276 14.4592 14.581 18.1542 10.041 18.1542ZM14.5594 11.985C14.3119 11.8608 13.0944 11.2617 12.8669 11.1792C12.6402 11.0967 12.4752 11.055 12.3094 11.3025C12.1435 11.55 11.6702 12.1083 11.5252 12.2742C11.381 12.4392 11.236 12.46 10.9885 12.3358C10.741 12.2117 9.94271 11.9508 8.99687 11.1067C8.26104 10.45 7.76354 9.63917 7.61938 9.39083C7.47521 9.1425 7.60438 9.00917 7.72771 8.88583C7.83938 8.775 7.97521 8.59667 8.09938 8.45167C8.22438 8.30833 8.26521 8.205 8.34854 8.03917C8.43104 7.87417 8.39021 7.72917 8.32771 7.605C8.26521 7.48167 7.77021 6.2625 7.56438 5.76667C7.36354 5.28333 7.15938 5.34917 7.00688 5.34167C6.86271 5.33417 6.69771 5.33333 6.53188 5.33333C6.36688 5.33333 6.09854 5.395 5.87188 5.64333C5.64521 5.89167 5.00521 6.49083 5.00521 7.70917C5.00521 8.92833 5.89271 10.1058 6.01604 10.2708C6.13938 10.4358 7.76187 12.9375 10.246 14.01C10.8369 14.265 11.2985 14.4175 11.6577 14.5317C12.251 14.72 12.791 14.6933 13.2177 14.63C13.6935 14.5592 14.6827 14.0308 14.8894 13.4525C15.096 12.8742 15.096 12.3775 15.0335 12.275C14.9719 12.1708 14.8069 12.1092 14.5594 11.985Z" fill="#DF1A00"/>
</g>
<defs>
<clipPath id="clip0_197_19">
<rect width="20" height="20" fill="white"/>
</clipPath>
</defs>
</svg>
