<svg width="80" height="80" viewBox="0 0 80 80" fill="none" xmlns="http://www.w3.org/2000/svg">
<mask id="mask0_407_20" style="mask-type:luminance" maskUnits="userSpaceOnUse" x="0" y="0" width="80" height="80">
<path d="M80 0H0V80H80V0Z" fill="white"/>
</mask>
<g mask="url(#mask0_407_20)">
<path d="M80 18.3334C80 13.74 76.2634 10 71.6666 10H53.3334V0H0V70C0 75.5134 4.48666 80 10 80H43.3334C48.8466 80 53.3334 75.5134 53.3334 70V53.3334H80V18.3334ZM71.6666 16.6666C72.5834 16.6666 73.3334 17.4134 73.3334 18.3334V23.3334H53.3334V16.6666H71.6666ZM46.6666 70C46.6666 71.8366 45.1734 73.3334 43.3334 73.3334H10C8.16 73.3334 6.66666 71.8366 6.66666 70V60H46.6666V70ZM46.6666 53.3334H6.66666V6.66666H46.6666V53.3334ZM53.3334 46.6666V30H73.3334V46.6666H53.3334ZM19.75 38.0834L12.4766 30.5234L17.1 25.72L24.4866 33.39L36.5334 21.0466L41.1934 25.8134L29.17 38.1334L29.16 38.1466C26.68 40.6266 22.3 40.6334 19.75 38.0834ZM33.3334 70H20V63.3334H33.3334V70Z" fill="#DF1A00"/>
</g>
</svg>
