<svg width="80" height="80" viewBox="0 0 80 80" fill="none" xmlns="http://www.w3.org/2000/svg">
<g clip-path="url(#clip0_407_27)">
<mask id="mask0_407_27" style="mask-type:luminance" maskUnits="userSpaceOnUse" x="0" y="0" width="80" height="80">
<path d="M80 0H0V80H80V0Z" fill="white"/>
</mask>
<g mask="url(#mask0_407_27)">
<path d="M79.9993 56.6659C79.9914 62.8519 77.5305 68.7822 73.1564 73.1562C68.7822 77.5304 62.8519 79.9913 56.666 79.9992C36.406 80.3896 25.5526 54.5392 39.9993 40.3692V16.6659C40.7026 -5.36412 72.636 -5.33412 73.3326 16.6659V40.3692C77.5957 44.7238 79.9881 50.572 79.9993 56.6659ZM66.666 56.6659C66.6574 54.605 66.0124 52.5971 64.819 50.9169C63.6257 49.2367 61.9424 47.9662 59.9993 47.2792V26.6659H53.3326V47.2792C51.6087 47.8933 50.0868 48.9695 48.9331 50.3899C47.7794 51.8105 47.0384 53.5209 46.791 55.3341C46.5436 57.1473 46.7993 58.9936 47.5303 60.6713C48.2613 62.3491 49.4393 63.7935 50.9357 64.847C52.4321 65.9005 54.1893 66.5223 56.0152 66.6447C57.8411 66.7671 59.6656 66.3851 61.2891 65.5407C62.9127 64.6964 64.2729 63.4219 65.2212 61.8568C66.1694 60.2916 66.6693 58.4959 66.666 56.6659ZM26.666 29.8192L33.3326 33.6426V25.9759L30.0326 24.0659L33.3326 22.1759V14.5092L26.666 18.3126V10.4392L32.4393 4.66588L27.726 -0.0507812L23.3326 4.33255L18.9393 -0.0507812L14.226 4.66588L19.9993 10.4392V18.3126L13.166 14.3959L11.0293 6.51588L4.59599 8.25922L6.22265 14.2592L0.222656 15.8859L1.97265 22.3326L9.84934 20.1959L16.6326 24.0659L9.85262 27.9526L1.97265 25.8159L0.225989 32.2492L6.22599 33.8759L4.59932 39.8759L11.0326 41.6192L13.1693 33.7426L19.9993 29.8192V37.6959L14.226 43.4692L18.9393 48.1826L23.3326 43.7892L27.726 48.1826L32.4393 43.4692L26.666 37.6959V29.8192Z" fill="#DF1A00"/>
</g>
</g>
<defs>
<clipPath id="clip0_407_27">
<rect width="80" height="80" fill="white"/>
</clipPath>
</defs>
</svg>
