<svg width="80" height="80" viewBox="0 0 80 80" fill="none" xmlns="http://www.w3.org/2000/svg">
<g clip-path="url(#clip0_407_33)">
<mask id="mask0_407_33" style="mask-type:luminance" maskUnits="userSpaceOnUse" x="0" y="0" width="80" height="80">
<path d="M80 0H0V80H80V0Z" fill="white"/>
</mask>
<g mask="url(#mask0_407_33)">
<path d="M80 53.3334V63.3334H76.6666V73.3334H70V80H60V63.3334H20V80H10V73.3334H3.33334V63.3334H0V53.3334H3.33334V43.3334H10V36.6666H20V53.3334H60V36.6666H70V43.3334H76.6666V53.3334H80ZM28.0766 30H38.3334L33.6334 46.6666H37.63L54.49 21.3534C55.82 19.3466 54.3834 16.6666 51.9766 16.6666H41.7866L48.3334 0H33.99L25.1334 26.0334C24.5366 28.0066 26.0134 30 28.0766 30Z" fill="#DF1A00"/>
</g>
</g>
<defs>
<clipPath id="clip0_407_33">
<rect width="80" height="80" fill="white"/>
</clipPath>
</defs>
</svg>
