<svg width="32" height="32" viewBox="0 0 32 32" fill="none" xmlns="http://www.w3.org/2000/svg">
<g clip-path="url(#clip0_172_37)">
<path d="M16 0C11.6533 0 11.1107 0.0203047 9.404 0.0974628C7.7 0.178682 6.54 0.450765 5.52 0.852799C4.468 1.26702 3.57467 1.82337 2.68533 2.72625C1.796 3.62914 1.24667 4.53473 0.84 5.60411C0.444 6.63965 0.174667 7.81733 0.096 9.54729C0.016 11.28 0 11.8309 0 16.2438C0 20.6567 0.02 21.2076 0.096 22.9403C0.176 24.6689 0.444 25.8479 0.84 26.8835C1.248 27.9502 1.796 28.8584 2.68533 29.7614C3.57467 30.6629 4.46667 31.2219 5.52 31.6348C6.54133 32.0355 7.70133 32.3102 9.404 32.3901C11.1107 32.4713 11.6533 32.4876 16 32.4876C20.3467 32.4876 20.8893 32.4673 22.596 32.3901C24.2987 32.3089 25.46 32.0355 26.48 31.6348C27.5307 31.2206 28.4253 30.6629 29.3147 29.7614C30.2027 28.8584 30.7533 27.9543 31.16 26.8835C31.5547 25.8479 31.8253 24.6689 31.904 22.9403C31.984 21.2076 32 20.6567 32 16.2438C32 11.8309 31.98 11.28 31.904 9.54729C31.824 7.81868 31.5547 6.6383 31.16 5.60411C30.752 4.53608 30.2027 3.62914 29.3147 2.72625C28.4253 1.82337 27.5347 1.26567 26.48 0.852799C25.46 0.450765 24.2987 0.177328 22.596 0.0974628C20.8893 0.0162438 20.3467 0 16 0ZM16 2.92388C20.2707 2.92388 20.78 2.94554 22.4667 3.02C24.0267 3.09444 24.8733 3.35705 25.436 3.58176C26.1853 3.8755 26.716 4.22745 27.2787 4.79463C27.8373 5.36316 28.184 5.90327 28.4733 6.66402C28.692 7.23526 28.9533 8.09482 29.024 9.67859C29.1 11.3923 29.1173 11.9067 29.1173 16.2438C29.1173 20.5809 29.0973 21.0966 29.0187 22.809C28.9373 24.3928 28.6773 25.2523 28.4573 25.8236C28.1587 26.5843 27.8187 27.1231 27.2587 27.6944C26.7 28.2615 26.16 28.6134 25.4187 28.9072C24.8587 29.1292 23.9987 29.3945 22.4387 29.4662C20.74 29.5434 20.24 29.561 15.96 29.561C11.6787 29.561 11.1787 29.5407 9.48133 29.4609C7.92 29.3782 7.06 29.1143 6.5 28.8909C5.74133 28.5878 5.22 28.2426 4.66133 27.674C4.1 27.1068 3.74133 26.5586 3.46133 25.806C3.24133 25.2375 2.98267 24.3644 2.90133 22.7806C2.84133 21.075 2.82 20.5484 2.82 16.2235C2.82 11.8973 2.84133 11.3693 2.90133 9.6434C2.98267 8.05963 3.24133 7.18788 3.46133 6.61935C3.74133 5.84777 4.1 5.31984 4.66133 4.74996C5.22 4.18278 5.74133 3.81729 6.5 3.53438C7.06 3.30967 7.90133 3.04571 9.46133 2.96449C11.1613 2.90358 11.6613 2.88327 15.94 2.88327L16 2.92388ZM16 7.90261C11.46 7.90261 7.784 11.6387 7.784 16.2438C7.784 20.853 11.464 24.585 16 24.585C20.54 24.585 24.216 20.8489 24.216 16.2438C24.216 11.6346 20.536 7.90261 16 7.90261ZM16 21.6584C13.0533 21.6584 10.6667 19.2354 10.6667 16.2438C10.6667 13.2522 13.0533 10.8292 16 10.8292C18.9467 10.8292 21.3333 13.2522 21.3333 16.2438C21.3333 19.2354 18.9467 21.6584 16 21.6584ZM26.4613 7.57367C26.4613 8.64982 25.6 9.52293 24.5413 9.52293C23.4813 9.52293 22.6213 8.64847 22.6213 7.57367C22.6213 6.49887 23.4827 5.62576 24.5413 5.62576C25.5987 5.62441 26.4613 6.49887 26.4613 7.57367Z" fill="#DF1A00"/>
</g>
<defs>
<clipPath id="clip0_172_37">
<rect width="32" height="32.4876" fill="white"/>
</clipPath>
</defs>
</svg>
