<svg width="246" height="48" viewBox="0 0 246 48" fill="none" xmlns="http://www.w3.org/2000/svg">
<path d="M75.6437 42.1228H80.4982V44.0475H75.6437V42.1228ZM75.8171 47.823H73.4766V37.4589H81.1194V39.3837H75.8171V47.823Z" fill="white"/>
<path d="M86.7493 47.823V37.4589H89.0898V47.823H86.7493Z" fill="white"/>
<path d="M97.6303 47.823V39.4133H94.394V37.4589H103.207V39.4133H99.9708V47.823H97.6303Z" fill="white"/>
<path d="M108.512 47.823V37.4589H110.448L116.415 44.9211H115.476V37.4589H117.787V47.823H115.866L109.884 40.3609H110.823V47.823H108.512Z" fill="white"/>
<path d="M126.378 41.6342H131.247V43.4997H126.378V41.6342ZM126.551 45.8983H132.056V47.823H124.225V37.4589H131.868V39.3837H126.551V45.8983Z" fill="white"/>
<path d="M141.287 48.0007C140.478 48.0007 139.702 47.8921 138.961 47.675C138.219 47.448 137.622 47.1568 137.169 46.8014L137.964 44.9951C138.397 45.311 138.908 45.5725 139.495 45.7798C140.092 45.9772 140.694 46.0759 141.301 46.0759C141.763 46.0759 142.134 46.0315 142.414 45.9427C142.703 45.844 142.914 45.7107 143.049 45.5429C143.184 45.3751 143.252 45.1827 143.252 44.9655C143.252 44.6891 143.146 44.472 142.934 44.314C142.722 44.1462 142.443 44.013 142.096 43.9143C141.749 43.8057 141.364 43.707 140.94 43.6182C140.526 43.5195 140.107 43.401 139.683 43.2628C139.269 43.1246 138.888 42.947 138.542 42.7298C138.195 42.5127 137.911 42.2264 137.689 41.8711C137.477 41.5157 137.371 41.0617 137.371 40.5089C137.371 39.9167 137.525 39.3788 137.834 38.8951C138.152 38.4016 138.623 38.0117 139.25 37.7254C139.885 37.4293 140.68 37.2812 141.633 37.2812C142.269 37.2812 142.895 37.3602 143.512 37.5181C144.128 37.6662 144.672 37.8932 145.144 38.1992L144.422 40.0203C143.95 39.744 143.478 39.5416 143.006 39.4133C142.534 39.2751 142.072 39.206 141.619 39.206C141.166 39.206 140.795 39.2603 140.507 39.3689C140.218 39.4775 140.01 39.6206 139.885 39.7983C139.76 39.9661 139.697 40.1635 139.697 40.3905C139.697 40.657 139.803 40.8741 140.015 41.0419C140.227 41.1999 140.507 41.3282 140.853 41.4269C141.2 41.5256 141.58 41.6243 141.995 41.723C142.418 41.8217 142.837 41.9352 143.252 42.0636C143.675 42.1919 144.061 42.3646 144.407 42.5818C144.754 42.7989 145.033 43.0852 145.245 43.4405C145.467 43.7958 145.578 44.245 145.578 44.7878C145.578 45.3702 145.419 45.9032 145.101 46.3869C144.783 46.8705 144.306 47.2604 143.671 47.5565C143.044 47.8527 142.25 48.0007 141.287 48.0007Z" fill="white"/>
<path d="M154.545 48.0007C153.736 48.0007 152.961 47.8921 152.219 47.675C151.478 47.448 150.88 47.1568 150.428 46.8014L151.222 44.9951C151.656 45.311 152.166 45.5725 152.754 45.7798C153.351 45.9772 153.953 46.0759 154.56 46.0759C155.022 46.0759 155.393 46.0315 155.672 45.9427C155.961 45.844 156.173 45.7107 156.308 45.5429C156.443 45.3751 156.51 45.1827 156.51 44.9655C156.51 44.6891 156.404 44.472 156.192 44.314C155.98 44.1462 155.701 44.013 155.354 43.9143C155.008 43.8057 154.622 43.707 154.199 43.6182C153.784 43.5195 153.365 43.401 152.942 43.2628C152.527 43.1246 152.147 42.947 151.8 42.7298C151.454 42.5127 151.169 42.2264 150.948 41.8711C150.736 41.5157 150.63 41.0617 150.63 40.5089C150.63 39.9167 150.784 39.3788 151.092 38.8951C151.41 38.4016 151.882 38.0117 152.508 37.7254C153.144 37.4293 153.939 37.2812 154.892 37.2812C155.528 37.2812 156.154 37.3602 156.77 37.5181C157.387 37.6662 157.931 37.8932 158.403 38.1992L157.68 40.0203C157.209 39.744 156.737 39.5416 156.265 39.4133C155.793 39.2751 155.33 39.206 154.878 39.206C154.425 39.206 154.054 39.2603 153.765 39.3689C153.476 39.4775 153.269 39.6206 153.144 39.7983C153.019 39.9661 152.956 40.1635 152.956 40.3905C152.956 40.657 153.062 40.8741 153.274 41.0419C153.486 41.1999 153.765 41.3282 154.112 41.4269C154.459 41.5256 154.839 41.6243 155.253 41.723C155.677 41.8217 156.096 41.9352 156.51 42.0636C156.934 42.1919 157.319 42.3646 157.666 42.5818C158.013 42.7989 158.292 43.0852 158.504 43.4405C158.726 43.7958 158.836 44.245 158.836 44.7878C158.836 45.3702 158.677 45.9032 158.36 46.3869C158.042 46.8705 157.565 47.2604 156.929 47.5565C156.303 47.8527 155.509 48.0007 154.545 48.0007Z" fill="white"/>
<path d="M208.761 1.48828H193.058L188.227 6.37465L182.59 22.011L186.214 27.386H203.93L209.567 20.5451L212.788 5.39737L208.761 1.48828Z" fill="white" stroke="white"/>
<path d="M210.371 27.3864L218.424 1H225.671L232.516 15.6591L236.945 1H244.998L238.556 22.5L235.737 27.3864H228.893L223.256 13.2159L218.424 27.3864H210.371Z" fill="white" stroke="white"/>
<path d="M100.049 1.48828H93.204L86.7617 22.9883L90.3855 26.8974H106.894L108.102 21.0337H96.0224L100.049 1.48828Z" fill="white" stroke="white"/>
<path d="M110.52 22.4993L117.364 1.97656H124.612L119.78 20.0561H131.054L136.289 1.97656H143.939L137.496 22.4993L129.846 27.3857H112.13L110.52 22.4993Z" fill="white" stroke="white"/>
<path d="M145.547 8.32884L147.157 1.97656H172.121L170.913 8.32884H162.055L156.821 25.4311L153.6 26.897H148.365L153.6 8.32884H145.547Z" fill="white" stroke="white"/>
<path d="M176.149 3.93146L180.578 1.48828H184.605V3.93146L176.149 27.386H169.707L176.149 3.93146Z" fill="white" stroke="white"/>
<path d="M63.8133 4.4201L68.645 1.48828H84.348L87.5691 6.37465L83.1401 22.011L77.5031 26.8974H60.5922L57.3711 22.011L63.8133 4.4201Z" fill="white" stroke="white"/>
<path d="M40.8629 1.48828H32.8101H32.0048L30.7969 23.9656L32.8101 27.386L45.6946 26.8974L52.9421 20.5451L60.5923 1.48828H52.9421L43.2787 20.5451H38.8497L40.8629 1.48828Z" fill="white" stroke="white"/>
<path d="M1.80528 20.5451L6.63696 1.48828H29.9901L27.9769 7.84056H12.6766L11.8713 11.7496H26.3663L24.3531 17.1246H9.85809V20.5451H24.3531L21.9373 27.386L4.22112 26.8974L1 23.4769L1.80528 20.5451Z" fill="white" stroke="white"/>
<path d="M79.1105 7.8418H71.0577L67.0312 20.0577H76.292L79.1105 7.8418Z" fill="black" stroke="#111111"/>
<path d="M203.931 7.8418H195.878L191.852 20.0577H201.112L203.931 7.8418Z" fill="black" stroke="#111111"/>
</svg>
