<svg width="80" height="80" viewBox="0 0 80 80" fill="none" xmlns="http://www.w3.org/2000/svg">
<path d="M80 6.66666H76.6666V0H70V6.66666H10V0H3.33334V6.66666H0V13.3334H3.33334V20H10V13.3334H13.2466L30 37.7034V80H36.6666V63.3334H43.3334V80H50V37.7034L66.7534 13.3334H70V20H76.6666V13.3334H80V6.66666ZM44.9134 33.3334H35.09L21.34 13.3334H58.6634L44.9134 33.3334ZM33.3334 23.3334C33.3334 19.65 36.3166 16.6666 40 16.6666C43.6834 16.6666 46.6666 19.65 46.6666 23.3334C46.6666 27.0166 43.6834 30 40 30C36.3166 30 33.3334 27.0166 33.3334 23.3334Z" fill="#DF1A00"/>
</svg>
